<?xml version="1.0" standalone="no"?>
<!DOCTYPE svg PUBLIC "-//W3C//DTD SVG 20010904//EN"
 "http://www.w3.org/TR/2001/REC-SVG-20010904/DTD/svg10.dtd">
<svg version="1.0" xmlns="http://www.w3.org/2000/svg"
 width="130.000000pt" height="130.000000pt" viewBox="0 0 130.000000 130.000000"
 preserveAspectRatio="xMidYMid meet">
<metadata>
Created by potrace 1.14, written by Peter Selinger 2001-2017
</metadata>
<g transform="translate(0.000000,130.000000) scale(0.100000,-0.100000)"
fill="#000000" stroke="none">
<path d="M11 1240 c12 -241 170 -433 409 -495 133 -35 336 -24 405 21 32 21
31 31 -5 74 -44 51 -38 64 16 35 26 -14 53 -25 61 -25 28 0 139 -58 172 -90
48 -47 78 -123 72 -187 -1 -8 -17 -5 -48 10 -72 33 -221 30 -322 -6 -116 -41
-180 -92 -247 -194 -85 -130 -86 -373 -2 -373 21 0 183 83 208 107 11 10 15
36 15 91 1 117 48 191 145 226 88 32 180 26 276 -18 66 -30 72 -26 103 71 55
172 28 276 -118 463 -85 107 -121 166 -121 197 0 10 -4 25 -10 33 -7 12 -12
11 -30 -5 -20 -18 -51 -67 -50 -80 2 -46 4 -46 -62 -15 -37 17 -97 34 -143 41
-44 6 -99 20 -121 30 -45 20 -91 68 -106 111 -25 71 -80 -55 -58 -132 12 -41
-7 -49 -96 -45 -118 6 -202 50 -294 152 l-51 58 2 -55z"/>
<path d="M1020 680 c0 -26 63 -56 68 -33 5 20 -27 53 -50 53 -11 0 -18 -7 -18
-20z"/>
</g>
</svg>
