<svg class="svg-inline--fa fa-pause fa-stack-1x text-warning" data-fa-transform="shrink-2 up-8 right-6" aria-hidden="true" focusable="false" data-prefix="fas" data-icon="pause" role="img" xmlns="http://www.w3.org/2000/svg" viewBox="0 0 320 512" data-fa-i2svg="" style="transform-origin: 0.6875em 0em;"><g transform="translate(160 256)"><g transform="translate(192, -256)  scale(0.875, 0.875)  rotate(0 0 0)"><path fill="currentColor" d="M272 63.1l-32 0c-26.51 0-48 21.49-48 47.1v288c0 26.51 21.49 48 48 48L272 448c26.51 0 48-21.49 48-48v-288C320 85.49 298.5 63.1 272 63.1zM80 63.1l-32 0c-26.51 0-48 21.49-48 48v288C0 426.5 21.49 448 48 448l32 0c26.51 0 48-21.49 48-48v-288C128 85.49 106.5 63.1 80 63.1z" transform="translate(-160 -256)"></path></g></g></svg>
