<svg class="svg-inline--fa fa-xmark fa-stack-1x text-danger" data-fa-transform="shrink-2 up-8 right-6" aria-hidden="true" focusable="false" data-prefix="fas" data-icon="xmark" role="img" xmlns="http://www.w3.org/2000/svg" viewBox="0 0 320 512" data-fa-i2svg="" style="transform-origin: 0.6875em 0em;"><g transform="translate(160 256)"><g transform="translate(192, -256)  scale(0.875, 0.875)  rotate(0 0 0)"><path fill="currentColor" d="M310.6 361.4c12.5 12.5 12.5 32.75 0 45.25C304.4 412.9 296.2 416 288 416s-16.38-3.125-22.62-9.375L160 301.3L54.63 406.6C48.38 412.9 40.19 416 32 416S15.63 412.9 9.375 406.6c-12.5-12.5-12.5-32.75 0-45.25l105.4-105.4L9.375 150.6c-12.5-12.5-12.5-32.75 0-45.25s32.75-12.5 45.25 0L160 210.8l105.4-105.4c12.5-12.5 32.75-12.5 45.25 0s12.5 32.75 0 45.25l-105.4 105.4L310.6 361.4z" transform="translate(-160 -256)"></path></g></g></svg>
