<svg width="40" height="32" viewBox="0 0 761 766" fill="none" xmlns="http://www.w3.org/2000/svg">
<path d="M11.1135 387.822C4.97502 353.009 28.2147 319.819 63.0277 313.681L378.166 258.114C412.93 251.984 446.169 275.215 452.307 310.028L507.875 625.166C514.005 659.93 490.724 693.178 455.961 699.307L140.822 754.875C106.009 761.013 72.8107 737.724 66.6809 702.961L11.1135 387.822Z" fill="#8B3E33"/>
<path d="M761 288C761 447.075 632.075 576 473 576C313.925 576 185 447.075 185 288C185 128.925 313.925 0 473 0C632.075 0 761 128.925 761 288Z" fill="#612017"/>
<path d="M540.73 327.385C546.393 333.478 546.393 343.349 540.73 349.442C537.92 352.489 534.205 354 530.49 354C526.774 354 523.068 352.477 520.241 349.43L472.494 298.088L424.752 349.418C421.92 352.489 418.21 354 414.499 354C410.788 354 407.082 352.489 404.248 349.418C398.584 343.325 398.584 333.453 404.248 327.36L452.003 275.982L404.248 224.628C398.584 218.534 398.584 208.663 404.248 202.57C409.911 196.477 419.086 196.477 424.75 202.57L472.494 253.973L520.25 202.594C525.914 196.501 535.089 196.501 540.752 202.594C546.416 208.688 546.416 218.559 540.752 224.652L492.997 276.03L540.73 327.385Z" fill="#F48270"/>
</svg>
