<svg width="40" height="32" viewBox="0 0 761 766" fill="none" xmlns="http://www.w3.org/2000/svg">
<path d="M11.1135 387.822C4.97502 353.009 28.2147 319.819 63.0277 313.681L378.166 258.114C412.93 251.984 446.169 275.215 452.307 310.028L507.875 625.166C514.005 659.93 490.724 693.178 455.961 699.307L140.822 754.875C106.009 761.013 72.8107 737.724 66.6809 702.961L11.1135 387.822Z" fill="#8D6333"/>
<path d="M761 288C761 447.075 632.075 576 473 576C313.925 576 185 447.075 185 288C185 128.925 313.925 0 473 0C632.075 0 761 128.925 761 288Z" fill="#52310B"/>
<path d="M526.05 195H510.75C498.075 195 487.8 203.866 487.8 214.431V333.243C487.8 344.179 498.075 353.045 510.75 353.045L526.05 353.788C538.725 353.788 549 344.922 549 333.985V215.173C549 204.237 538.72 195 526.05 195ZM434.25 195H418.95C406.275 195 396 203.866 396 214.802V333.614C396 344.918 406.275 353.788 418.95 353.788H434.25C446.925 353.788 457.2 344.922 457.2 333.985V215.173C457.2 204.237 446.92 195 434.25 195Z" fill="#FFCC85"/>
</svg>
