<svg width="40" height="32" viewBox="0 0 761 766" fill="none" xmlns="http://www.w3.org/2000/svg">
<path d="M11.1135 387.822C4.97502 353.009 28.2147 319.819 63.0277 313.681L378.166 258.114C412.93 251.984 446.169 275.215 452.307 310.028L507.875 625.166C514.005 659.93 490.724 693.178 455.961 699.307L140.822 754.875C106.009 761.013 72.8107 737.724 66.6809 702.961L11.1135 387.822Z" fill="#42962D"/>
<path d="M761 288C761 447.075 632.075 576 473 576C313.925 576 185 447.075 185 288C185 128.925 313.925 0 473 0C632.075 0 761 128.925 761 288Z" fill="#134207"/>
<path d="M510.707 227.79L568.937 236.363C573.76 237.05 577.812 240.447 579.352 245.097C580.891 249.787 579.635 254.882 576.15 258.36L533.926 299.685L543.895 358.963C544.705 363.816 542.72 368.749 538.667 371.62C534.656 374.491 529.347 374.855 525.011 372.55L472.981 344.851L420.991 372.55C416.614 374.855 411.306 374.491 407.294 371.62C403.283 368.749 401.256 363.816 402.107 358.963L412.076 299.685L369.844 258.36C366.355 254.882 365.115 249.787 366.646 245.097C368.174 240.447 372.214 237.05 377.073 236.363L435.255 227.79L461.351 174.282C463.499 169.828 468.037 167 472.981 167C477.965 167 482.503 169.828 484.651 174.282L510.707 227.79Z" fill="#90D67F"/>
</svg>
